<?xml version="1.0" encoding="UTF-8"?>
<!-- Generated by Pixelmator Pro 3.6.18 -->
<svg width="250" height="250" viewBox="0 0 250 250" xmlns="http://www.w3.org/2000/svg">
    <path id="path1" fill="#000000" stroke="none" d="M 213.5 167.399994 C 207.740005 165.880005 203.229996 169.759995 201.320007 174.119995 C 199.080002 181 195.979996 186.029999 189.270004 189.970001 L 135.869995 220.919998 C 127.75 225.720001 117.239998 225.820007 110.400002 221.5 L 88.860001 208.809998 C 87.370003 207.919998 87.059998 206.009995 88.150002 204.75 L 145.679993 133.270004 C 151.229996 127.25 149.399994 118.720001 143.720001 116.019989 L 96.980003 80.949997 C 87.839996 75.019989 75.370003 75.570007 67.480003 84.929993 L 33.259998 125.040001 L 33.259998 87.809998 C 33.259998 79.149994 38.009998 71.559998 44.73 67.459991 L 110.699997 28.149994 C 118.860001 23.130005 128.100006 23.5 135.580002 28.360001 L 188.979996 59.770004 C 196.210007 63.639999 200 70.910004 200.860001 76.839996 C 202.160004 81.5 206.899994 85.160004 212.139999 83.540009 C 217.25 81.959991 219.039993 76.800003 217.940002 72.959991 C 214.699997 60.199997 207.850006 50.279999 197.960007 44.899994 L 144.020004 12.449997 C 137.190002 8.210007 131.050003 6.869995 123.110001 6.869995 C 115.209999 6.869995 108.889999 8.710007 102.650002 12.740005 L 34.799999 51.940002 C 22.85 58.580002 14.72 71.899994 14.72 86.860001 L 14.72 128.970001 C 14.72 139.660004 22.35 145.270004 31.25 145.270004 C 37.450001 145.270004 42.240002 142.279999 46.27 137.029999 L 81.82 96.230011 C 83.410004 94.190002 84.720001 93.929993 87.059998 95.25 L 118.860001 119.630005 L 92.709999 125.32 C 83.410004 127.669998 75.099998 132.220001 69.410004 140.410004 L 27.07 191.050003 C 32.400002 196.110001 35.700001 198.350006 42.16 201.779999 L 84.669998 149.649994 C 88.449997 145.720001 92.809998 143.720001 98.379997 142.580002 L 118.18 137.970001 L 72.769997 194.649994 C 64.349998 205 67.919998 217.949997 77.059998 222.660004 L 104.849998 238.690002 C 116.75 245.210007 131.880005 244.110001 142 237.850006 L 198.119995 205.149994 C 208.820007 199.009995 215.059998 188.25 217.619995 176.070007 C 218.410004 172.139999 216.619995 168.570007 213.5 167.399994 Z"/>
    <path id="path2" fill="#000000" stroke="none" d="M 124.900002 47.410004 C 115.529999 47.119995 110.589996 55.479996 110.589996 62.449997 C 110.589996 71.459991 117.940002 77.669998 125.379997 77.269989 C 127.559998 77.149994 129.309998 76.779999 130.449997 76.23999 L 170.179993 100.01001 C 171.190002 100.660004 172.100006 101.529999 172.779999 102.679993 L 185.669998 124.800003 L 170.720001 149.179993 L 130.610001 173.210007 C 128.800003 172.630005 127.040001 172.429993 125.239998 172.429993 C 115.529999 172.429993 110.190002 180.259995 110.190002 187.360001 C 110.190002 196.059998 117.449997 202.050003 124.900002 201.789993 C 133.649994 201.490005 137.830002 194.889999 139.199997 189.419998 L 180.029999 166.210007 C 184.440002 163.630005 186.830002 160.759995 188.789993 157.350006 L 202.190002 132.210007 C 205.429993 127.019997 204.460007 120.910004 201.800003 117.209991 L 187.929993 93.179993 C 185.199997 88.220001 182.110001 86.160004 177.410004 83.419998 L 139.639999 60.449997 C 138.130005 52.709991 132.149994 47.639999 124.900002 47.410004 Z M 124.940002 55.869995 C 129.529999 55.869995 130.630005 59.610001 130.630005 62.050003 C 130.630005 66.019989 127.529999 68.019989 125.059998 68.019989 C 120.739998 68.019989 118.800003 64.809998 118.800003 62.169998 C 118.800003 58.709991 121.330002 55.869995 124.940002 55.869995 Z M 124.940002 181.169998 C 129.529999 181.169998 130.630005 184.919998 130.630005 187.360001 C 130.630005 190.570007 127.730003 192.899994 125.260002 192.899994 C 120.940002 192.899994 119 189.320007 119 187.320007 C 119 183.860001 121.330002 181.169998 124.940002 181.169998 Z"/>
    <path id="path3" fill="#373737" stroke="none" d="M 212.300003 96.480011 L 221.339996 96.419998 L 233.190002 117.709991 C 236.309998 123.269997 235.539993 129.509995 232.220001 134.820007 L 220.380005 153.759995 L 211.740005 153.699997 L 225.940002 129.25 C 227.839996 125.949997 227.770004 122.220001 225.770004 119.380005 L 212.300003 96.480011 Z"/>
    <path id="path4" fill="#373737" stroke="none" d="M 150.800003 117.800003 L 180.699997 117.73999 L 185.160004 124.830002 L 181.009995 132.210007 L 151.100006 132.350006 C 153.440002 127.220001 153.300003 122.25 150.800003 117.800003 Z"/>
</svg>
