<svg xmlns="http://www.w3.org/2000/svg" viewBox="0 0 150 136.9">
<!-- SVG created with Arrow, by QuiverAI (https://quiver.ai) -->
  <style type="text/css">.cls-0 {fill:#010101;}
.cls-1 {fill:none;stroke:#FFFFFF;stroke-width:3.4189;}</style>
  <path class="cls-1" d="m125.6 94.2v14.8c0 2.4-1.8 4.3-4.3 4.3h-48.3c-4-0.1-7.4-3-7.4-7.3v-39.4c0-3.1-1.8-6.8-3.7-8.7l-29.4-30.8c-1.4-1.5-2.8-2.4-5.4-2.4h-14.6c-2.2 0-3.2 1.1-3.2 3.1v96.3c0 2.3 1.7 3.7 4 3.7h7.5c2.5 0.1 4.2-1.5 4.2-4.2v-82.8c0-1.4 1.5-2.6 3-1l21.1 22.5c0.2 2 1.3 2.1 1.3 4.1l0.1 57.9c0 2.1 1.2 3.5 3.4 3.5h81c3.5 0 5.8-2.4 5.8-6.1v-27.4c0-2.4-1.8-4.7-4.7-4.7h-5.8c-2.3-0.2-4.6 1.5-4.6 4.6zm-92.3-69.5v-12.6c0-1.5 0.9-2.8 2.8-2.8h96.1c4.2 0 6.9 2.9 6.9 6.8v31.2c0 1.7-0.5 3.2-2 4.3s-2.4 1-8.2 1c-1.9 0-4.9-1-4.9-5.1 0-3.2 0-16.3-0.1-18 0-2.9-2.2-5.1-5.5-5.1h-82.8-2.3v0.3zm58.6 69.2 8.8-2.9c3.5-1.1 3.7-3.6 3.7-5.2 0-7.4-0.2-39.4-0.2-40.5 0-2.5-1.8-4.7-4.5-4.7h-5.8c-1.7 0-3.4 0.7-4.9 2.3-2.5 2.7-8.2 9.8-13.2 16.1-2 2.4-2.2 4.9-2.2 8.1v5c0.1 3.9 4 6.1 6.4 3l7.9-9.7c1.1-1.2 2.6-2 2.6 0v27.4c0 1.1 0.6 1.5 1.4 1.1z"/>
</svg>